<?xml version="1.0" standalone="no"?><!-- Generator: Gravit.io --><svg xmlns="http://www.w3.org/2000/svg" xmlns:xlink="http://www.w3.org/1999/xlink" style="isolation:isolate" viewBox="0 0 176 177" width="176" height="177"><defs><clipPath id="_clipPath_23aXGvXNdDGXDvaxVeRB1NGmGQh9LYye"><rect width="176" height="177"/></clipPath></defs><g clip-path="url(#_clipPath_23aXGvXNdDGXDvaxVeRB1NGmGQh9LYye)"><clipPath id="_clipPath_6vf33onSDEgek79vCdhRlnXk8bRUMsoH"><rect x="0" y="0" width="176" height="177" transform="matrix(1,0,0,1,0,0)" fill="rgb(255,255,255)"/></clipPath><g clip-path="url(#_clipPath_6vf33onSDEgek79vCdhRlnXk8bRUMsoH)"><g id="Group"><g id="Capa_3"><g id="Group"><path d=" M 69.76 110.28 L 27.2 131.56 C 15 137.64 15 137.64 12 177 L 164 177 C 161 137.64 161 137.64 148.8 131.56 L 106.24 110.28 L 69.76 110.28 Z " fill="rgb(58,76,100)"/><clipPath id="_clipPath_MtS4XRxM5lQZ4YGDpWYkeRnDX7ZM4LyN"><path d=" M 69.76 110.28 L 27.2 131.56 C 15 137.64 15 137.64 12 177 L 164 177 C 161 137.64 161 137.64 148.8 131.56 L 106.24 110.28 L 69.76 110.28 Z " fill="rgb(255,255,255)"/></clipPath><g clip-path="url(#_clipPath_MtS4XRxM5lQZ4YGDpWYkeRnDX7ZM4LyN)"><g id="Group"><g id="Group"><g id="Group" style="opacity:0.2;"><g id="Group" style="opacity:0.3;"><g opacity="0.3"><path d=" M 88 177 L 11.74 177 L 12 120.82 L 36.06 120.82 L 88 150.8 L 88 177 L 88 177 Z " fill="rgb(255,255,255)"/></g></g></g></g></g></g><path d=" M 94.1 140.83 C 90.279 142.831 85.721 142.831 81.9 140.83 C 66.12 132.59 63.68 124.21 63.68 113.32 L 63.68 102 C 63.68 94.82 69.5 89 76.68 89 L 99.31 89 C 106.49 89 112.31 94.82 112.31 102 L 112.31 113.31 C 112.32 124.21 109.88 132.59 94.1 140.83 Z " fill-rule="evenodd" fill="rgb(133,222,216)"/><clipPath id="_clipPath_HeQwqzQNKkjsMykqyedw95NxDiYyLGCu"><path d=" M 94.1 140.83 C 90.279 142.831 85.721 142.831 81.9 140.83 C 66.12 132.59 63.68 124.21 63.68 113.32 L 63.68 102 C 63.68 94.82 69.5 89 76.68 89 L 99.31 89 C 106.49 89 112.31 94.82 112.31 102 L 112.31 113.31 C 112.32 124.21 109.88 132.59 94.1 140.83 Z " fill="rgb(255,255,255)"/></clipPath><g clip-path="url(#_clipPath_HeQwqzQNKkjsMykqyedw95NxDiYyLGCu)"><g id="Group"><g id="Group"><rect x="61.14" y="92.04" width="55.23" height="59.79" transform="matrix(1,0,0,1,0,0)" fill="rgb(255,223,177)"/><g id="Group" style="opacity:0.2;"><g id="Group" style="opacity:0.2;"><g opacity="0.2"><path d=" M 67.79 111.27 L 122.49 79.69 L 122.54 79.6 L 122.54 142.76 L 95.19 126.97 L 95.14 127.06 L 67.79 111.27 L 67.79 111.27 Z " fill="rgb(191,54,3)"/></g></g></g></g></g></g><path d=" M 88 12.88 C 119.45 12.88 127.52 35.5 127.52 52.4 L 127.52 76.72 C 127.52 94.54 110.64 117.72 88 117.72 C 65.36 117.72 48.48 94.5 48.48 76.72 L 48.48 52.4 C 48.48 35.5 56.55 12.88 88 12.88 Z " fill-rule="evenodd" fill="rgb(255,223,177)"/><path d=" M 69.76 92 C 69.76 92 73.386 99.251 79.173 102.178 C 81.785 103.499 84.727 104.16 88 104.16 C 88 104.16 95.825 102.495 99.31 100 C 102.362 97.815 106.24 92 106.24 92 L 69.76 92 Z " fill-rule="evenodd" fill="rgb(255,255,255)"/></g></g><g id="lentes"><g id="Group" style="opacity:0.5;"><g id="Group" style="opacity:0.5;"><g opacity="0.5"><path d=" M 67.58 76.39 C 55.23 76.39 52.64 68.78 52.64 59.39 C 53.04 58.28 53.32 55.39 67.58 55.39 C 81.84 55.39 82.11 58.24 82.52 59.39 C 82.51 68.78 79.93 76.39 67.58 76.39 Z  M 124.34 59.46 C 123.94 58.33 123.65 55.46 109.4 55.46 C 95.15 55.46 94.87 58.31 94.47 59.46 C 94.47 68.8 97.05 76.46 109.4 76.46 C 121.75 76.46 124.34 68.78 124.34 59.46 Z " fill="rgb(255,255,255)"/></g></g></g><path d=" M 108.91 52.49 C 96.04 52.49 92.32 54.75 91.33 58.49 L 84.67 58.49 C 83.67 54.77 79.96 52.49 67.09 52.49 C 50.75 52.49 49.16 56.13 49.16 61.76 C 49.16 71.47 52.26 79.38 67.09 79.38 C 80.52 79.38 84.33 72.89 84.92 64.44 L 91.08 64.44 C 91.67 72.89 95.48 79.38 108.91 79.38 C 123.74 79.38 126.84 71.47 126.84 61.76 C 126.84 56.13 125.25 52.49 108.91 52.49 Z  M 67.09 73.4 C 57.2 73.4 55.09 67.97 55.09 61.29 C 55.41 60.5 55.63 58.47 67.09 58.47 C 78.55 58.47 78.71 60.47 79.09 61.32 C 79 68 77 73.4 67.09 73.4 Z  M 108.91 73.4 C 99 73.4 97 68 97 61.29 C 97.32 60.5 97.54 58.47 109 58.47 C 120.46 58.47 120.63 60.47 121 61.32 C 120.86 68 118.79 73.4 108.91 73.4 Z " fill="rgb(58,76,100)"/></g><g id="Capa_4"><path d=" M 49.68 56 C 50.07 49.06 53.77 42.23 60.05 36.83 C 60.33 37.978 59.944 39.187 59.05 39.96 C 60.12 37.96 62.67 36.17 65.28 35.05 C 68.062 33.912 71.073 33.443 74.07 33.68 C 70.4 34.485 66.907 35.949 63.76 38 C 66.69 37.6 69.64 37.44 72.57 37 L 72.72 36.59 C 71.82 38.5 69.17 40.21 66.59 41.13 C 73.31 40.81 79.29 38.68 83.59 35.13 C 87 32.26 89 28.74 91 25.28 C 92.51 26.63 94.84 27.22 97.1 27.89 L 110.69 31.89 C 111.11 32.63 110.49 34.06 109.8 34.69 C 109.005 35.324 108.118 35.833 107.17 36.2 L 99.88 39.52 C 104.82 38.97 109.45 36.52 111.69 33.44 C 112.2 33.081 112.868 33.039 113.42 33.33 C 113.681 33.634 113.811 34.03 113.78 34.43 L 113.91 37.68 C 114.76 37.01 115.91 36.38 116.79 35.68 C 120.536 40.623 123.566 46.07 125.79 51.86 C 125.842 47.247 127.533 42.802 130.56 39.32 C 130.87 40.32 131.08 41.69 131.4 42.68 C 131.7 40.03 131.12 37.37 130.97 34.68 C 130.622 31.953 131.351 29.199 133 27 C 130.74 26.86 128.633 25.81 127.16 24.09 C 125.967 22.615 125.082 20.914 124.56 19.09 C 123.462 16.066 124.547 12.681 127.2 10.86 C 124.231 11.805 121.438 13.231 118.93 15.08 C 117.93 12.65 117.02 10.26 116.06 7.82 C 115.777 6.918 115.279 6.098 114.61 5.43 C 113.708 4.643 112.501 4.302 111.32 4.5 C 112.744 6.598 113.342 9.148 113 11.66 C 110.45 7.25 106.22 3.33 101.33 0 C 101.271 1.449 101.92 2.837 103.07 3.72 C 92.415 2.864 81.704 2.981 71.07 4.07 C 72.66 4.46 73.63 4.95 75.22 5.35 L 61.17 5.74 C 59.362 5.747 57.557 5.891 55.77 6.17 C 54.101 6.402 52.521 7.06 51.18 8.08 L 57.42 11.08 C 53.294 10.967 49.212 11.951 45.59 13.93 L 56.73 12.6 C 53.503 12.474 50.299 13.187 47.43 14.67 C 45.205 15.837 43.59 17.907 43 20.35 C 44.08 19.6 44.87 18.94 46 18.19 C 42.127 24.662 40.487 32.226 41.33 39.72 C 41.67 42.32 43.69 44.52 45.91 46.64" fill="rgb(43,41,38)"/></g></g></g></g></svg>