
<svg version="1.1" id="Capa_1" xmlns="http://www.w3.org/2000/svg" xmlns:xlink="http://www.w3.org/1999/xlink" x="0px" y="0px"
	 viewBox="0 0 490.6 1053" style="enable-background:new 0 0 490.6 1053;" xml:space="preserve">
<style type="text/css">
	.st0{fill:none;stroke:#3185FC;stroke-width:8;stroke-miterlimit:10;}
	.st1{fill:none;stroke:#3185FC;stroke-width:3;stroke-miterlimit:10;}
	.st2{fill:none;stroke:#3185FC;stroke-width:3;stroke-linecap:round;stroke-miterlimit:10;}
</style>
<path class="st0" d="M399.9,552.5l-59.5-54.8l-57.8,53.2l59.5,54.8L399.9,552.5z M325.2,551.7c0-8.8,7.2-16,16-16
	c8.8,0,16,7.2,16,16c0,8.8-7.2,16-16,16C332.4,567.7,325.2,560.6,325.2,551.7z"/>
<line class="st1" x1="379.7" y1="883" x2="486.3" y2="883"/>
<line class="st1" x1="381.3" y1="881.9" x2="381.8" y2="967.2"/>
<line class="st1" x1="296.2" y1="966.2" x2="381.5" y2="965.6"/>
<circle class="st2" cx="278.8" cy="966.2" r="17.1"/>
<line class="st1" x1="235.9" y1="834" x2="489.3" y2="834"/>
<line class="st1" x1="237.5" y1="832.5" x2="238.8" y2="1035.2"/>
<line class="st1" x1="37.6" y1="1034.8" x2="240.3" y2="1033.5"/>
<line class="st1" x1="379.7" y1="332.5" x2="486.3" y2="332.5"/>
<line class="st1" x1="381.3" y1="333.6" x2="381.8" y2="248.3"/>
<line class="st1" x1="296.2" y1="249.3" x2="381.5" y2="249.9"/>
<circle class="st2" cx="278.8" cy="249.3" r="17.1"/>
<line class="st1" x1="383.9" y1="869.1" x2="490.6" y2="869.1"/>
<line class="st1" x1="385.5" y1="870.2" x2="386.1" y2="784.8"/>
<line class="st1" x1="300.4" y1="785.9" x2="385.8" y2="786.4"/>
<circle class="st2" cx="283.1" cy="785.9" r="17.1"/>
<line class="st1" x1="379.7" y1="101.1" x2="486.3" y2="101.1"/>
<line class="st1" x1="381.3" y1="100" x2="381.8" y2="185.3"/>
<line class="st1" x1="296.2" y1="184.3" x2="381.5" y2="183.7"/>
<circle class="st2" cx="278.8" cy="184.3" r="17.1"/>
<line class="st1" x1="200.2" y1="551.2" x2="285.5" y2="551.7"/>
<line class="st1" x1="401" y1="552.3" x2="486.3" y2="552.8"/>
<circle class="st2" cx="182.8" cy="551.2" r="17.1"/>
<line class="st1" x1="340.7" y1="687.8" x2="341.2" y2="602.4"/>
<line class="st1" x1="256.7" y1="685.6" x2="342.1" y2="686.2"/>
<circle class="st2" cx="239.4" cy="685.6" r="17.1"/>
<line class="st1" x1="340.7" y1="412.5" x2="341.2" y2="497.9"/>
<line class="st1" x1="256.7" y1="414.7" x2="342.1" y2="414.1"/>
<circle class="st2" cx="239.4" cy="414.7" r="17.1"/>
<circle class="st2" cx="21.8" cy="1034.4" r="17.1"/>
<line class="st1" x1="232.7" y1="219" x2="486.1" y2="219"/>
<line class="st1" x1="234.3" y1="220.5" x2="235.6" y2="17.8"/>
<line class="st1" x1="34.4" y1="18.2" x2="237.1" y2="19.5"/>
<circle class="st2" cx="18.6" cy="18.6" r="17.1"/>
<polygon class="st1" points="271.3,441.9 271.3,524.9 316.4,483.4 "/>
<polygon class="st1" points="271.3,657.9 271.3,574.9 316.4,616.4 "/>
</svg>
