<?xml version="1.0" standalone="no"?><!-- Generator: Gravit.io --><svg xmlns="http://www.w3.org/2000/svg" xmlns:xlink="http://www.w3.org/1999/xlink" style="isolation:isolate" viewBox="0 0 207.639 286.563" width="207.639" height="286.563"><defs><clipPath id="_clipPath_FkpXcRqVmrr11QAzEIEQeR4tI086kkx2"><rect width="207.639" height="286.563"/></clipPath></defs><g clip-path="url(#_clipPath_FkpXcRqVmrr11QAzEIEQeR4tI086kkx2)"><path d=" M 18.281 264.423 L 18.281 22.14 C 29.131 19.62 40.495 18.281 52.201 18.281 C 52.201 18.281 52.201 18.281 52.201 18.281 C 127.9 18.281 189.358 74.292 189.358 143.281 C 189.358 212.271 127.9 268.281 52.201 268.281 C 52.201 268.281 52.201 268.281 52.201 268.281 C 40.495 268.281 29.131 266.942 18.281 264.423 Z " fill="rgb(49,133,252)"/><path d=" M 121.023 244.017 C 121.023 231.08 131.526 220.577 144.463 220.577 C 157.4 220.577 167.903 231.08 167.903 244.017 C 167.903 256.954 157.4 267.457 144.463 267.457 C 131.526 267.457 121.023 256.954 121.023 244.017 Z " fill="rgb(59,77,101)"/><path d=" M 142.543 237.135 Q 142.543 236.399 142.543 235.664 L 142.543 232.439 C 142.543 231.629 142.041 231.397 141.424 231.92 L 135.649 236.815 L 129.874 241.71 C 129.257 242.234 129.257 243.085 129.874 243.608 L 135.649 248.503 L 141.424 253.398 C 142.041 253.922 142.543 253.69 142.543 252.88 L 142.543 248.503 L 142.543 247.153 L 139.728 244.649 L 136.913 242.144 L 139.728 239.639 L 142.543 237.135 Z " fill="rgb(255,255,250)"/><path d=" M 146.166 247.153 L 146.166 248.503 L 146.166 252.88 C 146.166 253.69 146.668 253.922 147.286 253.398 L 153.06 248.503 L 158.835 243.608 C 159.453 243.085 159.453 242.234 158.835 241.71 L 153.06 236.815 L 147.286 231.92 C 146.668 231.397 146.166 231.629 146.166 232.439 L 146.166 235.664 Q 146.166 236.398 146.166 237.133 L 146.166 237.135 L 148.981 239.639 L 151.796 242.144 L 148.981 244.649 L 146.166 247.153 Z " fill="rgb(255,255,250)"/><path d=" M 142.543 237.135 Q 142.543 236.399 142.543 235.664 L 142.543 232.439 C 142.543 231.629 142.041 231.397 141.424 231.92 L 135.649 236.815 L 129.874 241.71 C 129.257 242.234 129.257 243.085 129.874 243.608 L 135.649 248.503 L 141.424 253.398 C 142.041 253.922 142.543 253.69 142.543 252.88 L 142.543 248.503 L 142.543 247.153 L 139.728 244.649 L 136.913 242.144 L 139.728 239.639 L 142.543 237.135 Z " fill="rgb(255,255,250)"/><path d=" M 146.166 247.153 L 146.166 248.503 L 146.166 252.88 C 146.166 253.69 146.668 253.922 147.286 253.398 L 153.06 248.503 L 158.835 243.608 C 159.453 243.085 159.453 242.234 158.835 241.71 L 153.06 236.815 L 147.286 231.92 C 146.668 231.397 146.166 231.629 146.166 232.439 L 146.166 235.664 Q 146.166 236.398 146.166 237.133 L 146.166 237.135 L 148.981 239.639 L 151.796 242.144 L 148.981 244.649 L 146.166 247.153 Z " fill="rgb(255,255,250)"/><path d="M 56.722 186.425 L 106.577 136.57 C 108.42 134.727 111.202 134.516 112.786 136.1 L 112.786 136.1 C 114.369 137.683 114.159 140.465 112.315 142.309 L 62.46 192.164 C 60.617 194.007 57.835 194.218 56.251 192.634 L 56.251 192.634 C 54.668 191.051 54.879 188.268 56.722 186.425 Z" style="stroke:none;fill:#FFFFFA;stroke-miterlimit:10;"/><path d="M 112.315 135.419 L 62.46 85.564 C 60.617 83.721 57.835 83.51 56.251 85.094 L 56.251 85.094 C 54.668 86.678 54.879 89.46 56.722 91.303 L 106.577 141.158 C 108.42 143.001 111.202 143.212 112.786 141.628 L 112.786 141.628 C 114.369 140.045 114.159 137.263 112.315 135.419 Z" style="stroke:none;fill:#FFFFFA;stroke-miterlimit:10;"/><path d="M 51.474 90.031 L 56.411 85.094 C 57.995 83.51 60.566 83.51 62.15 85.094 L 62.15 85.094 C 63.733 86.678 63.733 89.249 62.15 90.832 L 57.213 95.769 C 55.629 97.353 53.058 97.353 51.474 95.769 L 51.474 95.769 C 49.891 94.186 49.891 91.614 51.474 90.031 Z" style="stroke:none;fill:#FFFFFA;stroke-miterlimit:10;"/><path d="M 61.434 186.98 L 56.497 182.043 C 54.914 180.46 52.342 180.46 50.759 182.043 L 50.759 182.043 C 49.175 183.627 49.175 186.198 50.759 187.782 L 55.696 192.719 C 57.279 194.302 59.851 194.302 61.434 192.719 L 61.434 192.719 C 63.018 191.135 63.018 188.564 61.434 186.98 Z" style="stroke:none;fill:#FFFFFA;stroke-miterlimit:10;"/><rect x="84.922" y="179.632" width="56.546" height="15.498" transform="matrix(1,0,0,1,0,0)" fill="rgb(255,255,250)"/></g></svg>