<?xml version="1.0" encoding="utf-8"?>
<!-- Generator: Adobe Illustrator 22.0.0, SVG Export Plug-In . SVG Version: 6.00 Build 0)  -->
<svg version="1.1" id="Capa_1" xmlns="http://www.w3.org/2000/svg" xmlns:xlink="http://www.w3.org/1999/xlink" x="0px" y="0px"
	 viewBox="0 0 310 460" style="enable-background:new 0 0 310 460;" xml:space="preserve">
<style type="text/css">
	.st0{fill:#3185FC;stroke:#1B4D7F;stroke-width:10;stroke-miterlimit:10;}
	.st1{fill:#3B4D65;}
	.st2{fill:#FFFFFA;}
</style>
<g>
	<g>
		<polygon class="st0" points="5,241.5 5,327.5 51.7,284.5 		"/>
		<path class="st0" d="M121,220.7l-55.8-51.4L11,219.2l55.8,51.4L121,220.7z M51,220c0-8.3,6.7-15,15-15s15,6.7,15,15
			c0,8.3-6.7,15-15,15S51,228.3,51,220z"/>
		<polygon class="st0" points="5,113.9 5,196.9 50.1,155.4 		"/>
		<path class="st0" d="M64.5,5C44,5,24,7.4,5,11.9V88c1.6,0.4,3,1.2,4.3,2.3c0.6,0.4,1.2,0.8,1.7,1.3l131.1,120.8
			c0.9,0.9,1.7,1.8,2.3,2.8c1.2,1.6,1.8,3.5,1.7,5.5c0.1,2-0.5,3.9-1.7,5.5c-0.6,1-1.4,1.9-2.3,2.8L11,349.8
			c-0.5,0.5-1.1,0.9-1.7,1.3C8,352.2,6.6,353,5,353.4v94.6c19,4.5,39,6.9,59.5,6.9C197.2,455,305,354.2,305,230
			C305,105.8,197.2,5,64.5,5z"/>
	</g>
	<path class="st1" d="M189.1,342.9c0-32,26.9-58,60-58s60,26,60,58s-26.9,58-60,58S189.1,374.9,189.1,342.9z"/>
	<path class="st2" d="M241,326.8c0-1.4,0-2.9,0-4.3V313c0-2.4-1.5-3.1-3.4-1.5L220,325.8l-17.6,14.4c-1.9,1.5-1.9,4,0,5.6l17.6,14.4
		l17.6,14.4c1.9,1.5,3.4,0.9,3.4-1.5v-12.9v-4l-8.6-7.4l-8.6-7.4l8.6-7.4L241,326.8z"/>
	<path class="st2" d="M257,326.8c0-1.4,0-2.9,0-4.3V313c0-2.4,1.5-3.1,3.4-1.5l17.6,14.4l17.6,14.4c1.9,1.5,1.9,4,0,5.6L278,360.2
		l-17.6,14.4c-1.9,1.5-3.4,0.9-3.4-1.5v-12.9v-4l8.6-7.4l8.6-7.4l-8.6-7.4L257,326.8z"/>
</g>
</svg>
